<?xml version="1.0" encoding="utf-8"?>
<!-- Generator: Adobe Illustrator 21.0.0, SVG Export Plug-In . SVG Version: 6.00 Build 0)  -->
<svg version="1.1" id="Layer_1" xmlns="http://www.w3.org/2000/svg" xmlns:xlink="http://www.w3.org/1999/xlink" x="0px" y="0px"
	 viewBox="0 0 64 64" style="enable-background:new 0 0 64 64;" xml:space="preserve">
<style type="text/css">
	.st0{fill:#455A64;stroke:#37474F;stroke-linecap:round;stroke-linejoin:round;stroke-miterlimit:10;}
	.st1{fill:#78909C;stroke:#37474F;stroke-linecap:round;stroke-linejoin:round;stroke-miterlimit:10;}
	.st2{fill:#ECEFF1;stroke:#37474F;stroke-linecap:round;stroke-linejoin:round;stroke-miterlimit:10;}
	.st3{fill:none;stroke:#FFFFFF;stroke-linecap:round;stroke-linejoin:round;stroke-miterlimit:10;}
	.st4{fill:#FFCA28;stroke:#37474F;stroke-linecap:round;stroke-linejoin:round;stroke-miterlimit:10;}
	.st5{fill:none;stroke:#37474F;stroke-linecap:round;stroke-linejoin:round;stroke-miterlimit:10;}
	.st6{fill:#B0BEC5;}
	.st7{fill:#37474F;}
	.st8{fill:#455A64;}
	.st9{fill:#9CCC65;stroke:#37474F;stroke-linecap:round;stroke-linejoin:round;stroke-miterlimit:10;}
	.st10{fill:none;stroke:#C5E1A5;stroke-linecap:round;stroke-linejoin:round;stroke-miterlimit:10;}
	.st11{fill:#26C6DA;stroke:#37474F;stroke-linecap:round;stroke-linejoin:round;stroke-miterlimit:10;}
	.st12{fill:#EF5350;stroke:#37474F;stroke-linecap:round;stroke-linejoin:round;stroke-miterlimit:10;}
	.st13{fill:#B0BEC5;stroke:#37474F;stroke-linecap:round;stroke-linejoin:round;stroke-miterlimit:10;}
	.st14{fill:none;stroke:#EF9A9A;stroke-linecap:round;stroke-linejoin:round;stroke-miterlimit:10;}
	.st15{fill:none;stroke:#FFE082;stroke-linecap:round;stroke-linejoin:round;stroke-miterlimit:10;}
	.st16{fill:#D32F2F;stroke:#37474F;stroke-linecap:round;stroke-linejoin:round;stroke-miterlimit:10;}
	.st17{fill:#0097A7;stroke:#37474F;stroke-linecap:round;stroke-linejoin:round;stroke-miterlimit:10;}
	.st18{fill:#689F38;stroke:#37474F;stroke-linecap:round;stroke-linejoin:round;stroke-miterlimit:10;}
	.st19{fill:#FFA000;stroke:#37474F;stroke-linecap:round;stroke-linejoin:round;stroke-miterlimit:10;}
	.st20{fill:#FFA000;}
	.st21{fill:#FF6F00;}
	.st22{fill:#D32F2F;}
	.st23{fill:#0097A7;}
	.st24{fill:none;stroke:#80DEEA;stroke-linecap:round;stroke-linejoin:round;stroke-miterlimit:10;}
	.st25{fill:#689F38;}
	.st26{fill:none;stroke:#B0BEC5;stroke-linecap:round;stroke-linejoin:round;stroke-miterlimit:10;}
	.st27{fill:#78909C;stroke:#37474F;stroke-miterlimit:10;}
	.st28{fill:#78909C;}
	.st29{fill:#B71C1C;}
	.st30{fill:#F57F17;}
	.st31{fill:#006064;}
	.st32{fill:#26A69A;stroke:#37474F;stroke-linecap:round;stroke-linejoin:round;stroke-miterlimit:10;}
</style>
<g>
	<path class="st17" d="M46.2,59h-35c-2.8,0-5-2.2-5-5V10c0-2.8,2.2-5,5-5h35c2.8,0,5,2.2,5,5v44C51.2,56.8,49,59,46.2,59z"/>
	<path class="st11" d="M46.2,55h-35c-2.8,0-5-2.2-5-5V6c0-2.8,2.2-5,5-5h35c2.8,0,5,2.2,5,5v44C51.2,52.8,49,55,46.2,55z"/>
	<g>
		<path class="st31" d="M43.6,55.5H11.2c-1.9,0-3.5-0.9-4.5-2.3V54c0,2.5,2,4.5,4.5,4.5h32c0,0,0,0,0,0c0.3-0.6,0.5-1.3,0.5-2
			C43.8,56.2,43.7,55.8,43.6,55.5z"/>
		<path class="st23" d="M11.2,54.5h32c-0.1-0.2-0.2-0.3-0.3-0.5c0.5-0.7,0.8-1.6,0.8-2.5c0-0.9-0.3-1.8-0.8-2.5
			c0.5-0.7,0.8-1.6,0.8-2.5c0-0.9-0.3-1.8-0.8-2.5c0.5-0.7,0.8-1.6,0.8-2.5c0-2.5-2-4.5-4.5-4.5h-9v-5.5c0-2.5-2-4.5-4.5-4.5h-1
			c-1.7,0-3.3,1-4,2.5l-1.9,3.7c-1.4,2.7-3.7,4.9-6.5,6.1l-0.3,0.1c-0.8-0.9-2-1.5-3.3-1.5h-2v12C6.8,52.5,8.8,54.5,11.2,54.5z"/>
	</g>
	<path class="st0" d="M3.8,62h5c1.4,0,2.5-1.1,2.5-2.5v-13c0-1.4-1.1-2.5-2.5-2.5h-5c-1.4,0-2.5,1.1-2.5,2.5v13
		C1.2,60.8,2.4,62,3.8,62z"/>
	<path class="st2" d="M41.8,46.5c0-1.4-1.1-2.5-2.5-2.5c1.4,0,2.5-1.1,2.5-2.5c0-1.4-1.1-2.5-2.5-2.5h-11v-7.5
		c0-1.4-1.1-2.5-2.5-2.5h-1c-0.9,0-1.8,0.5-2.2,1.4l-1.9,3.7c-1.6,3.2-4.2,5.7-7.5,7.1L11.2,42v14l4.2,1.8c1.9,0.8,3.9,1.2,5.9,1.2
		h17.9c1.4,0,2.5-1.1,2.5-2.5c0-1.4-1.1-2.5-2.5-2.5c1.4,0,2.5-1.1,2.5-2.5c0-1.4-1.1-2.5-2.5-2.5C40.6,49,41.8,47.9,41.8,46.5z"/>
	<path class="st3" d="M14,43c3.7-1.6,6.7-4.4,8.5-8l1.9-3.7"/>
	<path class="st13" d="M40.7,58.5c-0.4,0.3-0.9,0.5-1.5,0.5H21.3c-2,0-4-0.4-5.9-1.2L11.2,56v4l4.2,1.8c1.9,0.8,3.9,1.2,5.9,1.2
		h17.9c1.4,0,2.5-1.1,2.5-2.5C41.8,59.7,41.3,59,40.7,58.5z"/>
	<path class="st1" d="M3.8,58h5c1.4,0,2.5-1.1,2.5-2.5v-13c0-1.4-1.1-2.5-2.5-2.5h-5c-1.4,0-2.5,1.1-2.5,2.5v13
		C1.2,56.8,2.4,58,3.8,58z"/>
	<line class="st13" x1="39.2" y1="44" x2="36.2" y2="44"/>
	<line class="st13" x1="39.2" y1="49" x2="36.2" y2="49"/>
	<line class="st13" x1="39.2" y1="54" x2="36.2" y2="54"/>
	<circle class="st2" cx="6.2" cy="44" r="2"/>
	<path class="st24" d="M8.2,10V6c0-1.7,1.3-3,3-3h4"/>
	<line class="st5" x1="12.2" y1="8.5" x2="45.2" y2="8.5"/>
	<line class="st5" x1="12.2" y1="14.5" x2="28.8" y2="14.5"/>
	<line class="st5" x1="12.2" y1="20.5" x2="36.2" y2="20.5"/>
	<path class="st23" d="M37.8,27c0,7.3,5.8,13.2,13,13.5V13.5C43.5,13.8,37.8,19.7,37.8,27z"/>
	<circle class="st4" cx="51.2" cy="27" r="11.5"/>
	<path class="st15" d="M41.8,27c0-5.2,4.3-9.5,9.5-9.5"/>
	<g>
		<path class="st2" d="M45.8,28.2l2.8,2.8c0.6,0.6,1.5,0.6,2.1,0l6-6c0.6-0.6,0.6-1.5,0-2.1c-0.6-0.6-1.5-0.6-2.1,0l-4.9,4.9
			l-1.8-1.8c-0.6-0.6-1.5-0.6-2.1,0C45.2,26.7,45.2,27.7,45.8,28.2z"/>
	</g>
</g>
</svg>
